# xmcd CD database file
#
# Track frame offsets:
#	150
#	22699
#	41880
#	72664
#	104209
#	121330
#	142881
#	160628
#	190722
#	204682
#
# Disc length: 3017 seconds
#
# Revision: 1
# Processed by: cddbd v1.5.1PL0 Copyright (c) Steve Scherf et al.
# Submitted via: CDex 1.51
#
DISCID=8c0bc70a
DTITLE=Matthew Lien - Bleeding Wolves
DYEAR=1995
DGENRE=New Age
TTITLE0=Flail
TTITLE1=Confluence
TTITLE2=The Coming Through
TTITLE3=All That I Could Ask For
TTITLE4=All String Great And Amall
TTITLE5=Forever
TTITLE6=The River
TTITLE7=In The Canyon Of the Peel
TTITLE8=Safe Harbour
TTITLE9=The Hills Of Terra Firma
EXTD=YEAR: 1995
EXTT0=
EXTT1=
EXTT2=
EXTT3=
EXTT4=
EXTT5=
EXTT6=
EXTT7=
EXTT8=
EXTT9=
PLAYORDER=
